<svg data-v-423bf9ae="" xmlns="http://www.w3.org/2000/svg" viewBox="0 0 509 90" class="iconLeft"><!----><!----><!----><g data-v-423bf9ae="" id="cdd14009-350d-4589-a323-39758ad77feb" fill="#08374E" transform="matrix(5.813953660298242,0,0,5.813953660298242,119.08009960348573,-1.9186054120649487)"><path d="M4.00 13.09Q3.86 13.09 3.77 12.99Q3.67 12.89 3.67 12.75L3.67 12.75L3.67 9.60L0.35 3.74Q0.31 3.61 0.31 3.58L0.31 3.58Q0.31 3.46 0.40 3.37Q0.49 3.29 0.60 3.29L0.60 3.29L1.86 3.29Q2.13 3.29 2.30 3.56L2.30 3.56L4.65 7.62L7.01 3.56Q7.07 3.46 7.17 3.37Q7.28 3.29 7.43 3.29L7.43 3.29L8.69 3.29Q8.82 3.29 8.90 3.37Q8.99 3.46 8.99 3.58L8.99 3.58Q8.99 3.67 8.95 3.74L8.95 3.74L5.64 9.60L5.64 12.75Q5.64 12.91 5.54 13.00Q5.45 13.09 5.29 13.09L5.29 13.09L4.00 13.09ZM10.96 13.23Q10.25 13.23 9.65 12.94Q9.06 12.66 8.71 12.17Q8.37 11.68 8.37 11.09L8.37 11.09Q8.37 10.14 9.14 9.55Q9.91 8.96 11.26 8.75L11.26 8.75L13.17 8.47L13.17 8.18Q13.17 7.57 12.87 7.27Q12.56 6.96 11.89 6.96L11.89 6.96Q11.42 6.96 11.14 7.13Q10.86 7.29 10.69 7.47Q10.51 7.64 10.46 7.70L10.46 7.70Q10.40 7.87 10.25 7.87L10.25 7.87L9.16 7.87Q9.03 7.87 8.94 7.78Q8.85 7.70 8.85 7.56L8.85 7.56Q8.86 7.21 9.19 6.77Q9.52 6.33 10.21 6.00Q10.89 5.67 11.90 5.67L11.90 5.67Q13.55 5.67 14.31 6.41Q15.06 7.15 15.06 8.36L15.06 8.36L15.06 12.75Q15.06 12.89 14.97 12.99Q14.88 13.09 14.73 13.09L14.73 13.09L13.57 13.09Q13.43 13.09 13.33 12.99Q13.23 12.89 13.23 12.75L13.23 12.75L13.23 12.21Q12.92 12.66 12.36 12.94Q11.80 13.23 10.96 13.23L10.96 13.23ZM11.44 11.89Q12.21 11.89 12.70 11.38Q13.19 10.88 13.19 9.93L13.19 9.93L13.19 9.65L11.79 9.87Q10.18 10.12 10.18 10.95L10.18 10.95Q10.18 11.40 10.55 11.64Q10.92 11.89 11.44 11.89L11.44 11.89ZM17.19 13.09Q17.05 13.09 16.95 12.99Q16.86 12.89 16.86 12.75L16.86 12.75L16.86 6.15Q16.86 5.99 16.95 5.90Q17.05 5.81 17.19 5.81L17.19 5.81L18.35 5.81Q18.51 5.81 18.60 5.90Q18.69 5.99 18.69 6.15L18.69 6.15L18.69 6.72Q19.54 5.67 21.03 5.67L21.03 5.67Q22.32 5.67 23.07 6.51Q23.83 7.35 23.83 8.82L23.83 8.82L23.83 12.75Q23.83 12.89 23.74 12.99Q23.65 13.09 23.49 13.09L23.49 13.09L22.23 13.09Q22.09 13.09 21.99 12.99Q21.90 12.89 21.90 12.75L21.90 12.75L21.90 8.90Q21.90 8.09 21.50 7.64Q21.10 7.18 20.36 7.18L20.36 7.18Q19.64 7.18 19.21 7.64Q18.77 8.11 18.77 8.90L18.77 8.90L18.77 12.75Q18.77 12.89 18.68 12.99Q18.59 13.09 18.44 13.09L18.44 13.09L17.19 13.09ZM26.11 13.09Q25.97 13.09 25.87 12.99Q25.77 12.89 25.77 12.75L25.77 12.75L25.77 3.64Q25.77 3.49 25.87 3.39Q25.96 3.29 26.11 3.29L26.11 3.29L27.40 3.29Q27.55 3.29 27.65 3.39Q27.75 3.49 27.75 3.64L27.75 3.64L27.75 7.24L31.84 7.24L31.84 3.64Q31.84 3.49 31.93 3.39Q32.03 3.29 32.17 3.29L32.17 3.29L33.47 3.29Q33.63 3.29 33.72 3.39Q33.81 3.49 33.81 3.64L33.81 3.64L33.81 12.75Q33.81 12.89 33.72 12.99Q33.63 13.09 33.47 13.09L33.47 13.09L32.17 13.09Q32.03 13.09 31.93 12.99Q31.84 12.89 31.84 12.75L31.84 12.75L31.84 9.02L27.75 9.02L27.75 12.75Q27.75 12.89 27.65 12.99Q27.55 13.09 27.40 13.09L27.40 13.09L26.11 13.09ZM37.94 13.23Q37.23 13.23 36.63 12.94Q36.04 12.66 35.69 12.17Q35.35 11.68 35.35 11.09L35.35 11.09Q35.35 10.14 36.12 9.55Q36.89 8.96 38.23 8.75L38.23 8.75L40.15 8.47L40.15 8.18Q40.15 7.57 39.84 7.27Q39.54 6.96 38.86 6.96L38.86 6.96Q38.40 6.96 38.12 7.13Q37.84 7.29 37.67 7.47Q37.49 7.64 37.44 7.70L37.44 7.70Q37.38 7.87 37.23 7.87L37.23 7.87L36.13 7.87Q36.01 7.87 35.92 7.78Q35.83 7.70 35.83 7.56L35.83 7.56Q35.84 7.21 36.17 6.77Q36.50 6.33 37.18 6.00Q37.87 5.67 38.88 5.67L38.88 5.67Q40.53 5.67 41.29 6.41Q42.04 7.15 42.04 8.36L42.04 8.36L42.04 12.75Q42.04 12.89 41.95 12.99Q41.86 13.09 41.71 13.09L41.71 13.09L40.54 13.09Q40.40 13.09 40.31 12.99Q40.21 12.89 40.21 12.75L40.21 12.75L40.21 12.21Q39.90 12.66 39.34 12.94Q38.78 13.23 37.94 13.23L37.94 13.23ZM38.42 11.89Q39.19 11.89 39.68 11.38Q40.17 10.88 40.17 9.93L40.17 9.93L40.17 9.65L38.77 9.87Q37.16 10.12 37.16 10.95L37.16 10.95Q37.16 11.40 37.53 11.64Q37.90 11.89 38.42 11.89L38.42 11.89ZM44.11 4.62Q43.97 4.62 43.88 4.52Q43.78 4.42 43.78 4.28L43.78 4.28L43.78 3.26Q43.78 3.11 43.88 3.01Q43.97 2.91 44.11 2.91L44.11 2.91L45.40 2.91Q45.56 2.91 45.65 3.01Q45.75 3.11 45.75 3.26L45.75 3.26L45.75 4.28Q45.75 4.42 45.65 4.52Q45.54 4.62 45.40 4.62L45.40 4.62L44.11 4.62ZM44.17 13.09Q44.03 13.09 43.93 12.99Q43.83 12.89 43.83 12.75L43.83 12.75L43.83 6.15Q43.83 5.99 43.93 5.90Q44.03 5.81 44.17 5.81L44.17 5.81L45.36 5.81Q45.50 5.81 45.60 5.91Q45.70 6.01 45.70 6.15L45.70 6.15L45.70 12.75Q45.70 12.89 45.60 12.99Q45.50 13.09 45.36 13.09L45.36 13.09L44.17 13.09ZM47.50 13.09Q47.35 13.09 47.26 12.99Q47.17 12.89 47.17 12.74L47.17 12.74L47.17 11.75Q47.17 11.56 47.23 11.45Q47.29 11.34 47.38 11.23L47.38 11.23L52.23 4.97L47.64 4.97Q47.50 4.97 47.40 4.87Q47.31 4.77 47.31 4.62L47.31 4.62L47.31 3.64Q47.31 3.49 47.40 3.39Q47.49 3.29 47.64 3.29L47.64 3.29L54.35 3.29Q54.50 3.29 54.60 3.39Q54.70 3.49 54.70 3.64L54.70 3.64L54.70 4.62Q54.70 4.90 54.52 5.11L54.52 5.11L49.77 11.41L54.52 11.41Q54.67 11.41 54.76 11.50Q54.85 11.59 54.85 11.75L54.85 11.75L54.85 12.75Q54.85 12.89 54.76 12.99Q54.67 13.09 54.52 13.09L54.52 13.09L47.50 13.09ZM56.67 13.09Q56.53 13.09 56.43 12.99Q56.34 12.89 56.34 12.75L56.34 12.75L56.34 3.49Q56.34 3.33 56.43 3.24Q56.53 3.15 56.67 3.15L56.67 3.15L57.95 3.15Q58.10 3.15 58.19 3.24Q58.28 3.33 58.28 3.49L58.28 3.49L58.28 6.68Q59.12 5.67 60.54 5.67L60.54 5.67Q61.82 5.67 62.59 6.52Q63.36 7.36 63.36 8.82L63.36 8.82L63.36 12.75Q63.36 12.89 63.27 12.99Q63.18 13.09 63.03 13.09L63.03 13.09L61.75 13.09Q61.60 13.09 61.50 12.99Q61.40 12.89 61.40 12.75L61.40 12.75L61.40 8.90Q61.40 8.09 61.01 7.64Q60.61 7.18 59.86 7.18L59.86 7.18Q59.15 7.18 58.72 7.64Q58.28 8.11 58.28 8.90L58.28 8.90L58.28 12.75Q58.28 12.89 58.19 12.99Q58.10 13.09 57.95 13.09L57.95 13.09L56.67 13.09ZM65.42 4.62Q65.28 4.62 65.18 4.52Q65.09 4.42 65.09 4.28L65.09 4.28L65.09 3.26Q65.09 3.11 65.18 3.01Q65.28 2.91 65.42 2.91L65.42 2.91L66.71 2.91Q66.86 2.91 66.96 3.01Q67.06 3.11 67.06 3.26L67.06 3.26L67.06 4.28Q67.06 4.42 66.95 4.52Q66.85 4.62 66.71 4.62L66.71 4.62L65.42 4.62ZM65.48 13.09Q65.34 13.09 65.24 12.99Q65.14 12.89 65.14 12.75L65.14 12.75L65.14 6.15Q65.14 5.99 65.24 5.90Q65.34 5.81 65.48 5.81L65.48 5.81L66.67 5.81Q66.81 5.81 66.91 5.91Q67.00 6.01 67.00 6.15L67.00 6.15L67.00 12.75Q67.00 12.89 66.91 12.99Q66.81 13.09 66.67 13.09L66.67 13.09L65.48 13.09Z"></path></g><defs data-v-423bf9ae=""><linearGradient data-v-423bf9ae="" gradientTransform="rotate(25)" id="300be620-c149-41a0-bf5f-03b72f286ace" x1="0%" y1="0%" x2="100%" y2="0%"><stop data-v-423bf9ae="" offset="0%" style="stop-color: rgb(13, 124, 233); stop-opacity: 1;"></stop><stop data-v-423bf9ae="" offset="100%" style="stop-color: rgb(21, 207, 241); stop-opacity: 1;"></stop></linearGradient></defs><g data-v-423bf9ae="" id="a2c60d44-098c-4333-b707-f9d1bee9a6e2" transform="matrix(1.198242446102869,0,0,1.198242446102869,-9.10387403867363,-15.578143034254857)" stroke="none" fill="url(#300be620-c149-41a0-bf5f-03b72f286ace)"><path d="M49.569 22.967c-9.975-5.691-20.677-9.125-31.045-9.962v58.351c10.367.814 21.05 4.154 31.045 9.699V22.967zM82.444 13.005c-10.368.838-21.071 4.271-31.045 9.962v58.087c9.993-5.545 20.679-8.885 31.045-9.699v-58.35z"></path><path d="M49.229 84.073c.814.278 1.671.29 2.485.012 11.657-5.043 23.865-7.313 35.798-6.79V19.524a67.09 67.09 0 00-3.24-.055v53.594l-.852.056c-10.672.697-21.732 4.177-32.021 10.048a2.826 2.826 0 01-1.83 0c-10.29-5.871-21.349-9.351-32.021-10.048l-.854-.056V19.469a65.788 65.788 0 00-3.239.055v57.771c11.932-.524 24.114 1.735 35.774 6.778z"></path><path d="M92.579 26.009c-1.07-.149-2.157-.228-3.237-.335v53.55l-.968-.056c-12.195-.699-25.06 1.777-36.975 7.065l-.916.381-.915-.381c-11.917-5.288-24.781-7.765-36.976-7.065l-.967.056v-53.55c-1.081.108-2.168.187-3.238.335v58.707a4.876 4.876 0 011.044.748c12.951-1.75 26.393-1.536 39.18 2.651a19.022 19.022 0 011.873-.095c.661 0 1.285.037 1.872.095 12.785-4.188 26.229-4.401 39.179-2.651 0 0 "></path></g><!----></svg>